# xmcd
#
# Track frame offsets: 
#        150
#        19952
#        39100
#        51570
#        76245
#        105812
#        119967
#        136247
#        160100
#        175197
#        189070
#        203782
#        215582
#        242395
#        258305
#        283110
#
# Disc length: 4138 seconds
#
# Revision: 3
# Processed by: cddbd v1.5.2PL0 Copyright (c) Steve Scherf et al.
# Submitted via: ExactAudioCopyFreeDBPlugin 1.0
#
DISCID=d6102810
DTITLE=Various Artist - Blues From The Heart Of Dixie
DYEAR=2001
DGENRE=Blues
TTITLE0=Billy C Farlow - Howlin' At The Delta Moon
TTITLE1=Topper Price - I Can't Hold Out
TTITLE2=James Petterson - Fishin'
TTITLE3=Eddie Kirkland - Rainbow
TTITLE4=Gary Edmonds And The Bridge - When Push Comes To Shove
TTITLE5=" Wild Child" Butler - Everybody Got A Mojo
TTITLE6=Debbie Bond - Blue Rain
TTITLE7=The Butler Twins - Bring It On Back To Me
TTITLE8=Gary Edmonds And The Bridge - You Best Be Glad
TTITLE9=Little Jimmy Reed - Alabama's The Place To Be
TTITLE10=Billy Earl McClelland - Let It Cry For You
TTITLE11=Big Bo McGee - I Want My Baby
TTITLE12=Microwave Dave - Don't Throw My Baby
TTITLE13=Elnora Spencer - Hey Pretty Baby
TTITLE14=Willie King - Betty's Place
TTITLE15=Jerry"Boogie" McCain - Alabama Blues
EXTD=
EXTT0=
EXTT1=
EXTT2=
EXTT3=
EXTT4=
EXTT5=
EXTT6=
EXTT7=
EXTT8=
EXTT9=
EXTT10=
EXTT11=
EXTT12=
EXTT13=
EXTT14=
EXTT15=
PLAYORDER=
